PathFileType	4	(X/Y/Z)	C:\Data Capture\Research\archery\Archery pilot2.trc
DataRate	CameraRate	NumFrames	NumMarkers	Units	OrigDataRate	OrigDataStartFrame	OrigNumFrames
100.00	100.00	      104	3	mm	100.00	938	      1500
Frame#	Time	Marker 1			Marker 2			Marker 3			
		X1	Y1	Z1	X2	Y2	Z2	X3	Y3	Z3	

938	9.370	648.04095	542.31805	1545.58020	735.76764	536.18872	1497.21606	670.04333	495.67538	1413.38733	
939	9.380	647.77112	541.96295	1545.74512	735.50751	535.85480	1497.36499	669.79938	495.45032	1413.51563	
940	9.390	647.50610	541.63702	1545.89575	735.24829	535.54987	1497.48914	669.56830	495.23743	1413.63770	
941	9.400	647.23755	541.32855	1546.03296	734.98938	535.25708	1497.59460	669.34283	495.03506	1413.75610	
942	9.410	646.96509	541.02740	1546.15906	734.73273	534.96295	1497.69031	669.11823	494.83188	1413.87244	
943	9.420	646.69336	540.72662	1546.27795	734.48370	534.65997	1497.78784	668.89111	494.60855	1413.98657	
944	9.430	646.42535	540.42047	1546.39490	734.24622	534.34583	1497.89685	668.65796	494.34274	1414.09583	
945	9.440	646.16089	540.10266	1546.51709	734.01807	534.02045	1498.02100	668.41522	494.01801	1414.19604	
946	9.450	645.90088	539.76770	1546.65320	733.79114	533.68396	1498.15845	668.16241	493.63443	1414.28552	
947	9.460	645.64905	539.41309	1546.81177	733.55737	533.33636	1498.30688	667.90222	493.21646	1414.36853	
948	9.470	645.40826	539.03821	1547.00195	733.31226	532.97998	1498.46558	667.63611	492.81406	1414.45337	
949	9.480	645.17749	538.64246	1547.23145	733.05658	532.62292	1498.63660	667.35858	492.49426	1414.54944	
950	9.490	644.95258	538.22400	1547.50439	732.79608	532.27954	1498.82227	667.05798	492.32098	1414.66162	
951	9.500	644.72925	537.77814	1547.81567	732.54120	531.96466	1499.02380	666.72375	492.33267	1414.78577	
952	9.510	644.50739	537.29791	1548.15100	732.30286	531.68622	1499.23584	666.35272	492.52975	1414.90674	
953	9.520	644.29553	536.77747	1548.48779	732.08704	531.43976	1499.44031	665.95343	492.87384	1414.99792	
954	9.530	644.11023	536.21368	1548.79602	731.89374	531.20892	1499.60010	665.54333	493.29855	1415.02393	
955	9.540	643.96954	535.60638	1549.03638	731.71875	530.97028	1499.65955	665.14191	493.73273	1414.94470	
956	9.550	643.89038	534.96179	1549.15955	731.55780	530.70007	1499.55225	664.76270	494.12469	1414.71777	
957	9.560	643.88684	534.29779	1549.10925	731.40857	530.38336	1499.21204	664.40564	494.45380	1414.30176	
958	9.570	643.96631	533.64478	1548.82605	731.27380	530.02258	1498.57922	664.05963	494.71906	1413.65601	
959	9.580	644.12946	533.03851	1548.25208	731.16254	529.64014	1497.60425	663.71533	494.91418	1412.74170	
960	9.590	644.37592	532.50970	1547.33740	731.08850	529.27045	1496.25110	663.37421	495.01706	1411.52478	
961	9.600	644.70453	532.07739	1546.04883	731.06586	528.94745	1494.50073	663.04169	495.01019	1409.98181	
962	9.610	645.10638	531.74756	1544.37268	731.10669	528.69495	1492.35278	662.71826	494.91019	1408.10437	
963	9.620	645.56207	531.51453	1542.31458	731.21753	528.52362	1489.82507	662.40063	494.76669	1405.89893	
964	9.630	646.04645	531.36157	1539.89453	731.39783	528.43079	1486.94702	662.08942	494.63248	1403.38135	
965	9.640	646.53845	531.26294	1537.13928	731.63959	528.40106	1483.75000	661.79065	494.53928	1400.56934	
966	9.650	647.02942	531.19019	1534.07336	731.92902	528.40906	1480.25891	661.51257	494.49213	1397.47278	
967	9.660	647.52448	531.11938	1530.71558	732.25067	528.42902	1476.48718	661.26569	494.47800	1394.09216	
968	9.670	648.03571	531.03741	1527.07727	732.59265	528.44476	1472.43701	661.06262	494.48068	1390.42529	
969	9.680	648.57458	530.94379	1523.16211	732.94409	528.45221	1468.10278	660.91248	494.48801	1386.47229	
970	9.690	649.14697	530.84802	1518.96790	733.29102	528.45642	1463.47375	660.80872	494.49228	1382.23596	
971	9.700	649.75085	530.76331	1514.49036	733.61816	528.46844	1458.53796	660.72449	494.49380	1377.71875	
972	9.710	650.37769	530.70020	1509.72656	733.91528	528.50116	1453.28638	660.62122	494.50259	1372.92029	
973	9.720	651.01770	530.66302	1504.67554	734.17664	528.56171	1447.71362	660.46545	494.52832	1367.83630	
974	9.730	651.66522	530.65131	1499.33740	734.39716	528.64612	1441.81665	660.23871	494.57047	1362.46130	
975	9.740	652.31885	530.66498	1493.71252	734.57159	528.74280	1435.59424	659.93311	494.61890	1356.79492	
976	9.750	652.97711	530.70636	1487.80420	734.69757	528.84027	1429.04919	659.54407	494.65942	1350.84558	
977	9.760	653.63226	530.77893	1481.61963	734.77362	528.93115	1422.18884	659.06799	494.67746	1344.62634	
978	9.770	654.26904	530.88611	1475.16760	734.79498	529.01038	1415.02441	658.50360	494.66217	1338.15100	
979	9.780	654.87170	531.03033	1468.45471	734.75189	529.07385	1407.57031	657.85229	494.60794	1331.43433	
980	9.790	655.42889	531.21045	1461.48560	734.63806	529.12036	1399.84558	657.11969	494.51221	1324.49500	
981	9.800	655.93091	531.41803	1454.27234	734.45728	529.15448	1391.87561	656.31421	494.37408	1317.35876	
982	9.810	656.36658	531.63550	1446.84058	734.21405	529.18219	1383.69397	655.44183	494.19580	1310.05273	
983	9.820	656.72430	531.83752	1439.22827	733.89746	529.20483	1375.33765	654.49927	493.98672	1302.59827	
984	9.830	656.99353	531.99445	1431.47546	733.48462	529.21991	1366.84265	653.47156	493.76544	1295.00916	
985	9.840	657.16650	532.07690	1423.61829	732.95728	529.22681	1358.23975	652.33813	493.55893	1287.29272	
986	9.850	657.24139	532.06403	1415.68542	732.30780	529.23071	1349.55066	651.08130	493.39807	1279.45435	
987	9.860	657.22266	531.95001	1407.69238	731.53052	529.23914	1340.78369	649.69189	493.31076	1271.49976	
988	9.870	657.11566	531.74573	1399.63818	730.61438	529.25348	1331.93213	648.16779	493.31262	1263.43542	
989	9.880	656.92084	531.47388	1391.50574	729.55469	529.26965	1322.97937	646.51074	493.39810	1255.26721	
990	9.890	656.63367	531.15948	1383.27051	728.36359	529.28467	1313.90625	644.72308	493.53870	1247.00073	
991	9.900	656.25110	530.82483	1374.90930	727.06146	529.29486	1304.69629	642.80676	493.69153	1238.64258	
992	9.910	655.77521	530.49115	1366.40735	725.66260	529.29108	1295.33777	640.76483	493.80994	1230.20129	
993	9.920	655.21149	530.18121	1357.76038	724.17316	529.25879	1285.82922	638.60522	493.85052	1221.68738	
994	9.930	654.56348	529.91614	1348.97595	722.59229	529.17993	1276.17908	636.34131	493.77826	1213.11096	
995	9.940	653.83154	529.70679	1340.07104	720.91394	529.03760	1266.40637	633.98615	493.56879	1204.48291	
996	9.950	653.01416	529.54565	1331.06982	719.13373	528.82184	1256.53882	631.54486	493.21005	1195.81824	
997	9.960	652.10956	529.40735	1321.99988	717.25629	528.53302	1246.61121	629.01379	492.70639	1187.13623	
998	9.970	651.11707	529.25854	1312.88965	715.29120	528.18005	1236.65759	626.38220	492.08298	1178.45410	
999	9.980	650.03748	529.06970	1303.76379	713.24121	527.77466	1226.70093	623.63495	491.38184	1169.78076	
1000	9.990	648.87305	528.82190	1294.63843	711.09576	527.32623	1216.74866	620.75928	490.64822	1161.11768	
1001	10.000	647.62390	528.50836	1285.52112	708.83356	526.84052	1206.79871	617.74939	489.91528	1152.46594	
1002	10.010	646.28406	528.13068	1276.41211	706.43182	526.32184	1196.84802	614.60583	489.19763	1143.83118	
1003	10.020	644.84119	527.69635	1267.30896	703.87897	525.77374	1186.89807	611.33228	488.49640	1135.22107	
1004	10.030	643.28131	527.21802	1258.20862	701.17920	525.19641	1176.95508	607.93353	487.81122	1126.64282	
1005	10.040	641.59473	526.70538	1249.10938	698.34705	524.58533	1167.03040	604.41528	487.14606	1118.10071	
1006	10.050	639.78412	526.15833	1240.01294	695.39850	523.93481	1157.13574	600.78497	486.50229	1109.59521	
1007	10.060	637.86273	525.57477	1230.92383	692.34442	523.24329	1147.27625	597.05255	485.86774	1101.12451	
1008	10.070	635.83972	524.96704	1221.84155	689.18872	522.51538	1137.44873	593.23004	485.21613	1092.68274	
1009	10.080	633.70917	524.36292	1212.75464	685.92822	521.75751	1127.64587	589.33032	484.51300	1084.26355	
1010	10.090	631.45532	523.79224	1203.64539	682.55426	520.97449	1117.86047	585.36359	483.72037	1075.86523	
1011	10.100	629.06512	523.27698	1194.50171	679.05786	520.17310	1108.08716	581.33282	482.80420	1067.49194	
1012	10.110	626.53680	522.82654	1185.32788	675.43677	519.36310	1098.32471	577.23181	481.74966	1059.15198	
1013	10.120	623.87958	522.43311	1176.14685	671.69525	518.55035	1088.58044	573.04938	480.57510	1050.85583	
1014	10.130	621.10950	522.07013	1166.99329	667.83820	517.73132	1078.87122	568.77484	479.32883	1042.61426	
1015	10.140	618.24463	521.69897	1157.90283	663.86810	516.89917	1069.22168	564.40082	478.07172	1034.43799	
1016	10.150	615.29987	521.28131	1148.90344	659.78479	516.04919	1059.65576	559.92133	476.85812	1026.33752	
1017	10.160	612.28204	520.78979	1140.00769	655.58575	515.17755	1050.18701	555.33002	475.72452	1018.32068	
1018	10.170	609.18689	520.21307	1131.20837	651.26746	514.28052	1040.81067	550.61963	474.68613	1010.38928	
1019	10.180	605.99921	519.55908	1122.48071	646.82355	513.35620	1031.50403	545.78107	473.73416	1002.53619	
1020	10.190	602.69562	518.85321	1113.78662	642.24188	512.40753	1022.23511	540.80634	472.83035	994.74762	
1021	10.200	599.24835	518.13141	1105.08215	637.50659	511.44159	1012.97424	535.69128	471.91040	987.00824	
1022	10.210	595.63306	517.42963	1096.32959	632.60345	510.46536	1003.70032	530.43585	470.90344	979.30261	
1023	10.220	591.83594	516.77319	1087.51025	627.52631	509.47940	994.40472	525.04523	469.75598	971.61633	
1024	10.230	587.85736	516.16687	1078.62939	622.28125	508.47287	985.09424	519.53217	468.44730	963.94324	
1025	10.240	583.71112	515.58954	1069.71265	616.88605	507.42303	975.78857	513.91217	466.99329	956.28766	
1026	10.250	579.42145	514.99811	1060.79639	611.35980	506.30450	966.51245	508.19571	465.43857	948.65790	
1027	10.260	575.01776	514.34344	1051.91760	605.71460	505.10083	957.28790	502.38593	463.83929	941.06122	
1028	10.270	570.52838	513.58905	1043.10437	599.95813	503.80872	948.12970	496.48141	462.24338	933.50751	
1029	10.280	565.97302	512.72369	1034.37097	594.09698	502.43729	939.04431	490.47809	460.67700	926.01154	
1030	10.290	561.35339	511.76328	1025.71631	588.13318	501.00595	930.03143	484.37000	459.14371	918.58728	
1031	10.300	556.65118	510.74298	1017.12775	582.05804	499.54041	921.08862	478.15045	457.63071	911.24432	
1032	10.310	551.83527	509.70538	1008.58960	575.85132	498.06866	912.21448	471.81418	456.11661	903.99097	
1033	10.320	546.87421	508.68857	1000.09253	569.49139	496.61618	903.41180	465.36020	454.58224	896.83740	
1034	10.330	541.74829	507.71561	991.63873	562.96979	495.19589	894.68915	458.79385	453.01956	889.79248	
1035	10.340	536.45673	506.79062	983.24384	556.29547	493.80298	886.06079	452.12582	451.43344	882.86011	
1036	10.350	531.01636	505.90179	974.93390	549.48889	492.42096	877.54474	445.36783	449.84024	876.04065	
1037	10.360	525.45679	505.02365	966.73871	542.57550	491.03195	869.15869	438.52924	448.26263	869.33514	
1038	10.370	519.81396	504.11581	958.68341	535.58179	489.62082	860.91791	431.61618	446.71899	862.74561	
1039	10.380	514.12396	503.12756	950.78186	528.52887	488.17532	852.83392	424.62906	445.21301	856.27478	
1040	10.390	508.41144	502.01492	943.03180	521.42560	486.68594	844.91064	417.56003	443.73267	849.92780	
1041	10.400	502.67578	500.76181	935.41632	514.26605	485.14755	837.14441	410.39822	442.25763	843.71271	
